<mxfile host="app.diagrams.net" agent="Mozilla/5.0 (Macintosh; Intel Mac OS X 10.15; rv:143.0) Gecko/20100101 Firefox/143.0" version="28.2.4">
  <diagram name="Страница — 1" id="m0ZYANoeURFRTI81srfh">
    <mxGraphModel dx="270" dy="743" grid="1" gridSize="10" guides="1" tooltips="1" connect="1" arrows="1" fold="1" page="1" pageScale="1" pageWidth="1100" pageHeight="1700" math="0" shadow="0">
      <root>
        <mxCell id="0" />
        <mxCell id="1" parent="0" />
        <mxCell id="Rk34eifq8i1-w1Y0F80B-3" value="" style="edgeStyle=orthogonalEdgeStyle;rounded=0;orthogonalLoop=1;jettySize=auto;html=1;fontSize=12;strokeWidth=1;" parent="1" source="Rk34eifq8i1-w1Y0F80B-1" target="Rk34eifq8i1-w1Y0F80B-2" edge="1">
          <mxGeometry relative="1" as="geometry" />
        </mxCell>
        <mxCell id="Rk34eifq8i1-w1Y0F80B-1" value="&lt;div&gt;Начало&lt;/div&gt;&lt;div&gt;int(main);&lt;/div&gt;" style="ellipse;whiteSpace=wrap;html=1;fontSize=12;strokeWidth=1;" parent="1" vertex="1">
          <mxGeometry x="324" y="110" width="120" height="50" as="geometry" />
        </mxCell>
        <mxCell id="Rk34eifq8i1-w1Y0F80B-5" value="" style="edgeStyle=orthogonalEdgeStyle;rounded=0;orthogonalLoop=1;jettySize=auto;html=1;fontSize=12;strokeWidth=1;" parent="1" source="Rk34eifq8i1-w1Y0F80B-2" target="Rk34eifq8i1-w1Y0F80B-4" edge="1">
          <mxGeometry relative="1" as="geometry" />
        </mxCell>
        <mxCell id="Rk34eifq8i1-w1Y0F80B-2" value="&lt;div&gt;int x;&lt;/div&gt;int y;" style="whiteSpace=wrap;html=1;fontSize=12;strokeWidth=1;" parent="1" vertex="1">
          <mxGeometry x="324" y="235" width="120" height="60" as="geometry" />
        </mxCell>
        <mxCell id="Rk34eifq8i1-w1Y0F80B-7" value="" style="edgeStyle=orthogonalEdgeStyle;rounded=0;orthogonalLoop=1;jettySize=auto;html=1;fontSize=12;strokeWidth=1;" parent="1" source="Rk34eifq8i1-w1Y0F80B-4" target="Rk34eifq8i1-w1Y0F80B-6" edge="1">
          <mxGeometry relative="1" as="geometry" />
        </mxCell>
        <mxCell id="Rk34eifq8i1-w1Y0F80B-4" value="scanf(&quot;%d&quot;, &amp;amp;x);" style="shape=parallelogram;perimeter=parallelogramPerimeter;whiteSpace=wrap;html=1;fixedSize=1;fontSize=12;strokeWidth=1;" parent="1" vertex="1">
          <mxGeometry x="324" y="375" width="120" height="60" as="geometry" />
        </mxCell>
        <mxCell id="Rk34eifq8i1-w1Y0F80B-9" value="" style="edgeStyle=orthogonalEdgeStyle;rounded=0;orthogonalLoop=1;jettySize=auto;html=1;fontSize=12;strokeWidth=1;" parent="1" source="Rk34eifq8i1-w1Y0F80B-6" target="Rk34eifq8i1-w1Y0F80B-8" edge="1">
          <mxGeometry relative="1" as="geometry" />
        </mxCell>
        <mxCell id="Rk34eifq8i1-w1Y0F80B-12" value="" style="edgeStyle=orthogonalEdgeStyle;rounded=0;orthogonalLoop=1;jettySize=auto;html=1;fontSize=12;strokeWidth=1;" parent="1" source="Rk34eifq8i1-w1Y0F80B-6" target="Rk34eifq8i1-w1Y0F80B-11" edge="1">
          <mxGeometry relative="1" as="geometry" />
        </mxCell>
        <mxCell id="Rk34eifq8i1-w1Y0F80B-6" value="if (x &amp;lt;= -41);" style="rhombus;whiteSpace=wrap;html=1;fontSize=12;strokeWidth=1;" parent="1" vertex="1">
          <mxGeometry x="314.5" y="510" width="139" height="80" as="geometry" />
        </mxCell>
        <mxCell id="Rk34eifq8i1-w1Y0F80B-18" value="" style="edgeStyle=orthogonalEdgeStyle;rounded=0;orthogonalLoop=1;jettySize=auto;html=1;fontSize=12;strokeWidth=1;" parent="1" source="Rk34eifq8i1-w1Y0F80B-8" edge="1">
          <mxGeometry relative="1" as="geometry">
            <mxPoint x="170" y="800" as="targetPoint" />
          </mxGeometry>
        </mxCell>
        <mxCell id="Rk34eifq8i1-w1Y0F80B-8" value="y = 13 * x * x / 11 - 6" style="whiteSpace=wrap;html=1;fontSize=12;strokeWidth=1;" parent="1" vertex="1">
          <mxGeometry x="110" y="650" width="120" height="60" as="geometry" />
        </mxCell>
        <mxCell id="Rk34eifq8i1-w1Y0F80B-10" value="Так" style="text;html=1;align=center;verticalAlign=middle;resizable=0;points=[];autosize=1;strokeColor=none;fillColor=none;strokeWidth=1;fontSize=12;" parent="1" vertex="1">
          <mxGeometry x="220" y="510" width="40" height="30" as="geometry" />
        </mxCell>
        <mxCell id="Rk34eifq8i1-w1Y0F80B-23" value="" style="edgeStyle=orthogonalEdgeStyle;rounded=0;orthogonalLoop=1;jettySize=auto;html=1;fontSize=12;strokeWidth=1;" parent="1" source="Rk34eifq8i1-w1Y0F80B-11" target="Rk34eifq8i1-w1Y0F80B-22" edge="1">
          <mxGeometry relative="1" as="geometry" />
        </mxCell>
        <mxCell id="4GgJndyw-y588jSx2vs1-4" value="" style="edgeStyle=orthogonalEdgeStyle;rounded=0;orthogonalLoop=1;jettySize=auto;html=1;fontSize=12;strokeWidth=1;" edge="1" parent="1" source="4GgJndyw-y588jSx2vs1-6">
          <mxGeometry relative="1" as="geometry">
            <mxPoint x="860" y="800" as="targetPoint" />
            <Array as="points">
              <mxPoint x="860" y="770" />
              <mxPoint x="860" y="770" />
            </Array>
          </mxGeometry>
        </mxCell>
        <mxCell id="Rk34eifq8i1-w1Y0F80B-11" value="&lt;div&gt;else if ((x &amp;gt; -21 &amp;amp;&amp;amp; &amp;lt;= 3)&lt;/div&gt;&lt;div&gt;&amp;nbsp;|| x &amp;gt; 12);&lt;/div&gt;" style="rhombus;whiteSpace=wrap;html=1;fontSize=12;strokeWidth=1;" parent="1" vertex="1">
          <mxGeometry x="520" y="630" width="180" height="100" as="geometry" />
        </mxCell>
        <mxCell id="Rk34eifq8i1-w1Y0F80B-13" value="Ні" style="text;html=1;align=center;verticalAlign=middle;resizable=0;points=[];autosize=1;strokeColor=none;fillColor=none;strokeWidth=1;fontSize=12;" parent="1" vertex="1">
          <mxGeometry x="540" y="510" width="30" height="30" as="geometry" />
        </mxCell>
        <mxCell id="4GgJndyw-y588jSx2vs1-2" value="" style="edgeStyle=orthogonalEdgeStyle;rounded=0;orthogonalLoop=1;jettySize=auto;html=1;fontSize=12;strokeWidth=1;" edge="1" parent="1" source="Rk34eifq8i1-w1Y0F80B-22" target="4GgJndyw-y588jSx2vs1-1">
          <mxGeometry relative="1" as="geometry" />
        </mxCell>
        <mxCell id="Rk34eifq8i1-w1Y0F80B-22" value="y = -14 * x - 20" style="whiteSpace=wrap;html=1;fontSize=12;strokeWidth=1;" parent="1" vertex="1">
          <mxGeometry x="320" y="650" width="120" height="60" as="geometry" />
        </mxCell>
        <mxCell id="Rk34eifq8i1-w1Y0F80B-24" value="&lt;div&gt;Так&lt;/div&gt;" style="text;html=1;align=center;verticalAlign=middle;resizable=0;points=[];autosize=1;strokeColor=none;fillColor=none;fontSize=12;strokeWidth=1;" parent="1" vertex="1">
          <mxGeometry x="470" y="648" width="40" height="30" as="geometry" />
        </mxCell>
        <mxCell id="4GgJndyw-y588jSx2vs1-13" style="edgeStyle=orthogonalEdgeStyle;rounded=0;orthogonalLoop=1;jettySize=auto;html=1;exitX=0.5;exitY=1;exitDx=0;exitDy=0;entryX=0;entryY=0.5;entryDx=0;entryDy=0;" edge="1" parent="1" source="4GgJndyw-y588jSx2vs1-1" target="4GgJndyw-y588jSx2vs1-7">
          <mxGeometry relative="1" as="geometry" />
        </mxCell>
        <mxCell id="4GgJndyw-y588jSx2vs1-1" value="printf(&quot;y= -14 * x - 20 = %d\n&quot;);" style="shape=parallelogram;perimeter=parallelogramPerimeter;whiteSpace=wrap;html=1;fixedSize=1;fontSize=12;strokeWidth=1;" vertex="1" parent="1">
          <mxGeometry x="300" y="800" width="160" height="60" as="geometry" />
        </mxCell>
        <mxCell id="4GgJndyw-y588jSx2vs1-17" style="edgeStyle=orthogonalEdgeStyle;rounded=0;orthogonalLoop=1;jettySize=auto;html=1;entryX=1;entryY=0.5;entryDx=0;entryDy=0;" edge="1" parent="1" target="4GgJndyw-y588jSx2vs1-7">
          <mxGeometry relative="1" as="geometry">
            <mxPoint x="860" y="960" as="targetPoint" />
            <mxPoint x="860" y="860" as="sourcePoint" />
            <Array as="points">
              <mxPoint x="860" y="970" />
            </Array>
          </mxGeometry>
        </mxCell>
        <mxCell id="4GgJndyw-y588jSx2vs1-5" value="Ні" style="text;html=1;align=center;verticalAlign=middle;resizable=0;points=[];autosize=1;strokeColor=none;fillColor=none;fontSize=12;strokeWidth=1;" vertex="1" parent="1">
          <mxGeometry x="725" y="648" width="30" height="30" as="geometry" />
        </mxCell>
        <mxCell id="4GgJndyw-y588jSx2vs1-7" value="&lt;div&gt;Кінець&lt;/div&gt;&lt;div&gt;return 0;&lt;/div&gt;" style="ellipse;whiteSpace=wrap;html=1;" vertex="1" parent="1">
          <mxGeometry x="550" y="930" width="120" height="80" as="geometry" />
        </mxCell>
        <mxCell id="4GgJndyw-y588jSx2vs1-15" value="" style="edgeStyle=orthogonalEdgeStyle;rounded=0;orthogonalLoop=1;jettySize=auto;html=1;fontSize=12;strokeWidth=1;" edge="1" parent="1" source="Rk34eifq8i1-w1Y0F80B-11" target="4GgJndyw-y588jSx2vs1-6">
          <mxGeometry relative="1" as="geometry">
            <mxPoint x="700" y="680" as="sourcePoint" />
            <mxPoint x="860" y="940" as="targetPoint" />
          </mxGeometry>
        </mxCell>
        <mxCell id="4GgJndyw-y588jSx2vs1-6" value="else;" style="rounded=0;whiteSpace=wrap;html=1;" vertex="1" parent="1">
          <mxGeometry x="800" y="650" width="120" height="60" as="geometry" />
        </mxCell>
        <mxCell id="4GgJndyw-y588jSx2vs1-16" style="edgeStyle=orthogonalEdgeStyle;rounded=0;orthogonalLoop=1;jettySize=auto;html=1;exitX=0.5;exitY=1;exitDx=0;exitDy=0;" edge="1" parent="1" source="4GgJndyw-y588jSx2vs1-1" target="4GgJndyw-y588jSx2vs1-1">
          <mxGeometry relative="1" as="geometry" />
        </mxCell>
        <mxCell id="4GgJndyw-y588jSx2vs1-18" value="printf(&quot;не співпадае&quot;);" style="shape=parallelogram;perimeter=parallelogramPerimeter;whiteSpace=wrap;html=1;fixedSize=1;" vertex="1" parent="1">
          <mxGeometry x="790" y="800" width="150" height="60" as="geometry" />
        </mxCell>
        <mxCell id="4GgJndyw-y588jSx2vs1-20" style="edgeStyle=orthogonalEdgeStyle;rounded=0;orthogonalLoop=1;jettySize=auto;html=1;exitX=0.5;exitY=1;exitDx=0;exitDy=0;entryX=0;entryY=0.5;entryDx=0;entryDy=0;" edge="1" parent="1" source="4GgJndyw-y588jSx2vs1-19" target="4GgJndyw-y588jSx2vs1-7">
          <mxGeometry relative="1" as="geometry">
            <mxPoint x="310" y="990" as="targetPoint" />
          </mxGeometry>
        </mxCell>
        <mxCell id="4GgJndyw-y588jSx2vs1-19" value="printf(&quot;y = 13 * x * x / 11 - 6 = %d\n&quot;);" style="shape=parallelogram;perimeter=parallelogramPerimeter;whiteSpace=wrap;html=1;fixedSize=1;" vertex="1" parent="1">
          <mxGeometry x="75" y="800" width="190" height="60" as="geometry" />
        </mxCell>
      </root>
    </mxGraphModel>
  </diagram>
</mxfile>
